<svg id="whatsapp" xmlns="http://www.w3.org/2000/svg" width="34" height="34" viewBox="0 0 34 34">
  <path id="Path_64" data-name="Path 64" d="M34,16.563a16.722,16.722,0,0,1-24.759,14.5L0,34l3.012-8.888a16.394,16.394,0,0,1-2.394-8.55,16.691,16.691,0,0,1,33.381,0ZM17.307,2.641A13.994,13.994,0,0,0,3.275,16.566a13.775,13.775,0,0,0,2.673,8.162L4.2,29.9l5.39-1.713A14.049,14.049,0,0,0,31.34,16.563,13.993,13.993,0,0,0,17.307,2.641Zm8.43,17.737c-.1-.167-.377-.269-.785-.473s-2.421-1.185-2.795-1.318-.65-.205-.922.2-1.054,1.32-1.295,1.593-.477.306-.886.105a11.28,11.28,0,0,1-3.292-2.014,12.214,12.214,0,0,1-2.275-2.812c-.241-.406-.024-.625.178-.827.183-.183.409-.475.614-.713a2.706,2.706,0,0,0,.409-.675.756.756,0,0,0-.034-.713c-.1-.2-.919-2.2-1.262-3.012s-.681-.677-.92-.677-.511-.033-.784-.033a1.5,1.5,0,0,0-1.09.506A4.543,4.543,0,0,0,9.168,12.9a7.849,7.849,0,0,0,1.67,4.2c.206.269,2.832,4.5,6.99,6.129s4.161,1.082,4.91,1.013A4.128,4.128,0,0,0,25.5,22.313,3.373,3.373,0,0,0,25.737,20.378Z" fill="#f1f1ef"/>
</svg>
