<svg id="surface2898259" xmlns="http://www.w3.org/2000/svg" width="31.894" height="31.894" viewBox="0 0 31.894 31.894">
  <path id="Path_62" data-name="Path 62" d="M9.258,0A9.276,9.276,0,0,0,0,9.258V22.636a9.276,9.276,0,0,0,9.258,9.258H22.636a9.276,9.276,0,0,0,9.258-9.258V9.258A9.276,9.276,0,0,0,22.636,0Zm0,2.453H22.636a6.784,6.784,0,0,1,6.8,6.8V22.636a6.784,6.784,0,0,1-6.8,6.8H9.258a6.784,6.784,0,0,1-6.8-6.8V9.258A6.784,6.784,0,0,1,9.258,2.453ZM25.147,4.907a1.84,1.84,0,1,0,1.84,1.84A1.841,1.841,0,0,0,25.147,4.907Zm-9.2,2.453a8.587,8.587,0,1,0,8.587,8.587A8.6,8.6,0,0,0,15.947,7.36Zm0,2.453a6.133,6.133,0,1,1-6.133,6.133A6.115,6.115,0,0,1,15.947,9.813Zm0,0" fill="#737372"/>
</svg>
