<svg id="whatsapp" xmlns="http://www.w3.org/2000/svg" width="31.947" height="31.947" viewBox="0 0 31.947 31.947">
  <path id="Path_64" data-name="Path 64" d="M31.947,15.562A15.712,15.712,0,0,1,8.683,29.189L0,31.947,2.83,23.6A15.4,15.4,0,0,1,.581,15.561a15.683,15.683,0,0,1,31.366,0ZM16.261,2.481A13.149,13.149,0,0,0,3.077,15.566a12.943,12.943,0,0,0,2.512,7.669L3.943,28.092l5.065-1.609a13.2,13.2,0,0,0,20.44-10.92A13.148,13.148,0,0,0,16.261,2.481Zm7.921,16.666c-.1-.157-.354-.253-.738-.445s-2.275-1.114-2.626-1.239-.61-.193-.867.19-.991,1.241-1.217,1.5-.448.288-.832.1a10.6,10.6,0,0,1-3.093-1.893,11.476,11.476,0,0,1-2.138-2.642c-.226-.381-.023-.588.168-.777.172-.172.384-.446.577-.67a2.543,2.543,0,0,0,.384-.634.71.71,0,0,0-.032-.67c-.1-.192-.864-2.067-1.185-2.83s-.64-.636-.865-.636-.48-.031-.737-.031a1.407,1.407,0,0,0-1.024.475,4.269,4.269,0,0,0-1.345,3.181,7.375,7.375,0,0,0,1.569,3.945c.194.253,2.661,4.232,6.568,5.759s3.91,1.017,4.614.952a3.878,3.878,0,0,0,2.594-1.812A3.169,3.169,0,0,0,24.183,19.147Z" fill="#737372"/>
</svg>
