<svg xmlns="http://www.w3.org/2000/svg" xmlns:xlink="http://www.w3.org/1999/xlink" width="26" height="26" viewBox="0 0 26 26">
  <defs>
    <linearGradient id="linear-gradient" x1="0.193" y1="0.072" x2="0.833" y2="0.917" gradientUnits="objectBoundingBox">
      <stop offset="0" stop-color="#82d803"/>
      <stop offset="1" stop-color="#00afe4"/>
    </linearGradient>
  </defs>
  <g id="surface2898424" transform="translate(-2 -2)">
    <path id="Path_53" data-name="Path 53" d="M24.2,5.809A12.987,12.987,0,0,0,3.762,21.47L2,28l6.8-1.61a13,13,0,0,0,6.205,1.584h.005A12.988,12.988,0,0,0,24.2,5.809ZM21.368,19.621a3.26,3.26,0,0,1-2.189,1.539c-.6.056-1.158.269-3.895-.807-3.3-1.3-5.383-4.682-5.545-4.9A6.291,6.291,0,0,1,8.419,12.1,3.645,3.645,0,0,1,9.551,9.394a1.2,1.2,0,0,1,.868-.406c.213,0,.432,0,.62.01.234.005.487.02.731.559.289.64.919,2.245,1,2.407a.589.589,0,0,1,.025.569,2.349,2.349,0,0,1-.32.543c-.163.188-.34.422-.488.564-.162.163-.33.34-.142.665a9.658,9.658,0,0,0,1.8,2.245,8.807,8.807,0,0,0,2.61,1.61c.325.163.513.137.7-.081s.813-.945,1.031-1.27.432-.269.726-.163,1.894.894,2.219,1.056.538.244.62.376A2.718,2.718,0,0,1,21.368,19.621Zm0,0" fill="url(#linear-gradient)"/>
  </g>
</svg>
